<svg width="96" height="96" xmlns="http://www.w3.org/2000/svg" xmlns:xlink="http://www.w3.org/1999/xlink" overflow="hidden"><defs><clipPath id="clip0"><rect x="0" y="0" width="96" height="96"/></clipPath></defs><g clip-path="url(#clip0)"><path d="M92.772 16.251C92.0816 15.0553 90.5527 14.6457 89.357 15.336L79.777 20.867C76.0258 16.8482 69.727 16.6313 65.7083 20.3825 65.6712 20.4171 65.6345 20.4519 65.598 20.487L57.46 15.787C58.4725 10.3578 54.8921 5.13567 49.4629 4.12312 44.0336 3.11058 38.8115 6.69101 37.799 12.1202 37.573 13.3321 37.573 14.5752 37.799 15.787L29.654 20.487C25.6723 16.6661 19.347 16.7966 15.5262 20.7783 11.7053 24.76 11.8357 31.0852 15.8175 34.9061 16.9985 36.0395 18.44 36.8653 20.015 37.311L20.015 46.679C14.7113 48.1753 11.6248 53.6877 13.1211 58.9914 13.1388 59.0541 13.1571 59.1166 13.176 59.179L3.25 64.918C2.04972 65.6004 1.62992 67.1267 2.31235 68.3269 2.99477 69.5272 4.521 69.947 5.72128 69.2646 5.73089 69.2591 5.74046 69.2536 5.75 69.248L15.781 63.457C19.6313 67.2213 25.7761 67.2439 29.654 63.508L37.799 68.208C36.8322 73.3644 40.0425 78.3834 45.129 79.668L45.129 91C45.129 92.3807 46.2483 93.5 47.629 93.5 49.0097 93.5 50.129 92.3807 50.129 91L50.129 79.671C55.2141 78.3843 58.4236 73.3671 57.46 68.211L65.598 63.511C69.5832 67.3274 75.9077 67.1906 79.7241 63.2054 83.5405 59.2202 83.4037 52.8957 79.4185 49.0793 78.2428 47.9534 76.8097 47.1318 75.244 46.686L75.244 37.313C80.4546 35.8513 83.5388 30.4902 82.183 25.251L91.857 19.666C93.0527 18.9756 93.4623 17.4467 92.772 16.251ZM47.629 10C49.8381 10 51.629 11.7909 51.629 14 51.629 16.2091 49.8381 18 47.629 18 45.4199 18 43.629 16.2091 43.629 14 43.629 11.7909 45.4199 10 47.629 10ZM18.745 27.7C18.745 25.4909 20.5359 23.7 22.745 23.7 24.9541 23.7 26.745 25.4909 26.745 27.7 26.745 29.9091 24.9541 31.7 22.745 31.7 20.5378 31.7 18.7478 29.9122 18.745 27.705ZM22.745 60.29C20.5359 60.29 18.745 58.4991 18.745 56.29 18.745 54.0809 20.5359 52.29 22.745 52.29 24.9541 52.29 26.745 54.0809 26.745 56.29 26.7505 58.4991 24.9641 60.2945 22.755 60.3 22.7517 60.3 22.7483 60.3 22.745 60.3ZM47.629 74C45.4199 74 43.629 72.2091 43.629 70 43.629 67.7909 45.4199 66 47.629 66 49.8381 66 51.629 67.7909 51.629 70 51.629 72.2091 49.8381 74 47.629 74ZM47.629 60C44.6373 59.9996 41.8032 61.3411 39.907 63.655L32.3 59.261C33.9378 53.9901 30.9926 48.3894 25.7217 46.7516 25.4898 46.6795 25.2555 46.616 25.019 46.561L25.019 37.431C30.3952 36.1812 33.7403 30.8099 32.4906 25.4337 32.4356 25.1972 32.372 24.9628 32.3 24.731L39.911 20.337C43.4076 24.602 49.6996 25.225 53.9646 21.7284 54.4731 21.3115 54.9391 20.8455 55.356 20.337L62.956 24.725C61.3166 29.9949 64.2597 35.5959 69.5296 37.2353 69.7669 37.3091 70.0069 37.3741 70.249 37.43L70.249 46.554C64.8716 47.7961 61.5192 53.1622 62.7613 58.5396 62.8172 58.7817 62.8822 59.0217 62.956 59.259L55.356 63.647C53.4568 61.335 50.621 59.9966 47.629 60ZM76.5 56.3C76.5 58.5091 74.7091 60.3 72.5 60.3 70.2909 60.3 68.5 58.5091 68.5 56.3 68.5 54.0909 70.2909 52.3 72.5 52.3 74.7091 52.3 76.5 54.0909 76.5 56.3ZM72.5 31.71C70.2909 31.71 68.5 29.9191 68.5 27.71 68.5 25.5009 70.2909 23.71 72.5 23.71 74.7091 23.71 76.5 25.5009 76.5 27.71 76.4972 29.9172 74.7072 31.705 72.5 31.705Z" fill="#000000" fill-rule="nonzero" fill-opacity="1"/></g></svg>